<svg class="welcome-logo" width="42" height="42" viewBox="0 0 42 42" xmlns="http://www.w3.org/2000/svg" xmlns:xlink="http://www.w3.org/1999/xlink">
  <g id="short-arrow-right">
    <path id="arrow" d="M10.7125236,12.712499 C10.5125229,12.8999996 10.250022,13 10.0000211,13 C9.75002022,13 9.4875193,12.8999996 9.28751859,12.712499 C8.90001723,12.3124976 8.90001723,11.6874954 9.28751859,11.287494 L10.5875232,9.99998945 L5.00000352,9.99998945 C4.45000158,9.99998945 4,9.54998787 4,8.99998593 C4,8.449984 4.45000158,7.99998242 5.00000352,7.99998242 L10.5875232,7.99998242 L9.28751859,6.71247789 C8.90001723,6.31247648 8.90001723,5.68747428 9.28751859,5.28747288 C9.68752,4.89997151 10.3125222,4.89997151 10.7125236,5.28747288 L13.7125342,8.28748343 C14.1000355,8.68748483 14.1000355,9.31248703 13.7125342,9.71248844 L10.7125236,12.712499 Z" fill="#00AE55" />
  </g>
</svg>