<svg class="welcome-logo" width="42" height="42" viewBox="0 0 42 42" xmlns="http://www.w3.org/2000/svg" xmlns:xlink="http://www.w3.org/1999/xlink">
  <symbol id="logo">
    <circle cx="21" cy="21" r="21" fill="#00AE55"/>
    <path fill="#ffffff" d="M20.654 23.428l-2.646-8.19h-2.916l-2.646 8.172-2.106-8.172H7.316L10.79 28h2.988l2.736-8.46L19.232 28h2.934l3.474-12.762h-2.916l-2.07 8.19zm8.442-.972h3.582c-.036-.684-.504-1.512-1.8-1.512-1.152 0-1.728.846-1.782 1.512zm3.78 2.322l2.286.648c-.432 1.548-1.854 2.844-4.122 2.844-2.466 0-4.662-1.764-4.662-4.77 0-2.88 2.142-4.716 4.464-4.716 2.772 0 4.482 1.71 4.482 4.59 0 .378-.036.792-.054.846h-6.228c.054 1.008.972 1.728 2.034 1.728.99 0 1.548-.468 1.8-1.17z"/>
  </symbol>

  <symbol id="arrow-right" fill="white">
    <circle fill="#00AE55" cx="9" cy="9" r="9"></circle>
    <circle fill="#FFF" cx="9" cy="9" r="7"></circle>
    <path d="M10.7125236,12.712499 C10.5125229,12.8999996 10.250022,13 10.0000211,13 C9.75002022,13 9.4875193,12.8999996 9.28751859,12.712499 C8.90001723,12.3124976 8.90001723,11.6874954 9.28751859,11.287494 L10.5875232,9.99998945 L5.00000352,9.99998945 C4.45000158,9.99998945 4,9.54998787 4,8.99998593 C4,8.449984 4.45000158,7.99998242 5.00000352,7.99998242 L10.5875232,7.99998242 L9.28751859,6.71247789 C8.90001723,6.31247648 8.90001723,5.68747428 9.28751859,5.28747288 C9.68752,4.89997151 10.3125222,4.89997151 10.7125236,5.28747288 L13.7125342,8.28748343 C14.1000355,8.68748483 14.1000355,9.31248703 13.7125342,9.71248844 L10.7125236,12.712499 Z" fill="#00AE55" />
  </symbol>

  <symbol id="sign">
    <circle fill="#00AE55" cx="15" cy="15" r="15"></circle>
    <path transform="translate(7, 7)" d="M8.00002813,0 C12.4167103,0 16.0000563,3.58334593 16.0000563,8.00002813 C16.0000563,12.4167103 12.4167103,16.0000563 8.00002813,16.0000563 C3.58334593,16.0000563 0,12.4167103 0,8.00002813 C0,3.58334593 3.58334593,0 8.00002813,0 Z" fill-opacity="0.6" fill="#0E141A" />
    <path transform="translate(7, 7)" d="M11.766708,6.63335666 C11.9167086,6.46668941 12.0000422,6.25002198 12.0000422,6.0000211 C12.0000422,5.45001917 11.5500406,5.00001758 11.0000387,5.00001758 C10.6833709,5.00001758 10.4167033,5.13335139 10.2333693,5.36668554 C9.18336563,6.61668994 8.23336229,7.76669398 7.21669205,8.98336492 C6.86669081,8.63336369 6.63335666,8.40002954 5.98335437,7.76669398 C5.81668712,7.58336 5.56668624,7.46669292 5.28335191,7.46669292 C4.73334998,7.46669292 4.2833484,7.91669451 4.2833484,8.46669644 C4.2833484,8.75003077 4.40001547,9.00003165 4.58334945,9.1666989 L6.58335648,11.1667059 C6.75002374,11.3500399 7.00002462,11.466707 7.28335895,11.466707 C7.60002673,11.466707 7.86669433,11.3333732 8.05002831,11.100039 C9.33336616,9.56670031 10.4833702,8.18336211 11.766708,6.63335666 Z" fill="#FFFFFF" />
  </symbol>

  <symbol id="chat">
    <circle fill="#00AE55" cx="21" cy="21" r="21"></circle>
    <path transform="translate(9, 9)" d="M4.00001407,-7.73668289e-05 L20.0000844,-7.73668289e-05 C22.2000921,-7.73668289e-05 24.0000985,1.79992896 24.0000985,3.9999367 L24.0000985,22.000007 C24.0000985,23.1000109 23.1000953,24.0000141 22.0000914,24.0000141 C21.4500895,24.0000141 20.9500877,23.7750133 20.5750864,23.425012 C18.8000802,21.6250057 18.6000795,21.4500051 17.1750745,20 L4.00001407,20 C1.80000633,20 0,18.1999937 0,15.9999859 L0,3.9999367 C0,1.79992896 1.80000633,-7.73668289e-05 4.00001407,-7.73668289e-05 Z" id="balloon" fill-opacity="0.6" fill="#0E141A" />
    <path transform="translate(9, 9)" d="M6.0000211,15.9999789 L12.0000492,15.9999789 C13.1000531,15.9999789 14.0000563,15.0999757 14.0000563,13.9999719 C14.0000563,12.899968 13.1000531,11.9999648 12.0000492,11.9999648 L6.0000211,11.9999648 C4.90001723,11.9999648 4.00001407,12.899968 4.00001407,13.9999719 C4.00001407,15.0999757 4.90001723,15.9999789 6.0000211,15.9999789 Z" id="line-2" fill="#FFFFFF" />
    <path transform="translate(9, 9)" d="M6.0000211,7.99995077 L18.0000703,7.99995077 C19.1000742,7.99995077 20.0000774,7.0999476 20.0000774,5.99994373 C20.0000774,4.89993986 19.1000742,3.9999367 18.0000703,3.9999367 L6.0000211,3.9999367 C4.90001723,3.9999367 4.00001407,4.89993986 4.00001407,5.99994373 C4.00001407,7.0999476 4.90001723,7.99995077 6.0000211,7.99995077 Z" id="line-1" fill="#FFFFFF" />
  </symbol>

  <symbol id="docs">
    <circle fill="#00AE55" cx="21" cy="21" r="21"></circle>
    <path transform="translate(11.5, 9)" d="M13.1250462,0.875003077 L19.1250673,6.87502418 C19.6750692,7.42502611 20.0000703,8.17502875 20.0000703,9.00003165 L20.0000703,21.0000739 C20.0000703,22.6500797 18.6500656,24.0000844 17.0000598,24.0000844 L3.00001055,24.0000844 C1.35000475,24.0000844 0,22.6500797 0,21.0000739 L0,3.00001055 C0,1.35000475 1.35000475,0 3.00001055,0 L11.0000387,0 C11.8250416,0 12.5750442,0.325001143 13.1250462,0.875003077 Z" id="sheet" fill-opacity="0.6" fill="#0E141A" />
    <path transform="translate(11.5, 9)" d="M11.0000387,10.0000352 L15.0000528,10.0000352 C15.5500547,10.0000352 16.0000563,9.55003358 16.0000563,9.00003165 C16.0000563,8.72503068 15.9000559,8.4750298 15.7000552,8.30002919 C14.3000503,6.87502418 13.1250462,5.70002005 11.7000411,4.30001512 C11.5250405,4.10001442 11.2750397,4.00001407 11.0000387,4.00001407 C10.4500367,4.00001407 10.0000352,4.45001565 10.0000352,5.00001758 L10.0000352,9.00003165 C10.0000352,9.55003358 10.4500367,10.0000352 11.0000387,10.0000352 Z" id="fold" fill="#FFFFFF" />
  </symbol>

  <symbol id="help">
    <circle fill="#00AE55" cx="21" cy="21" r="21"></circle>
    <path transform="translate(7, 7)" d="M14.0000492,-8.4400177e-05 C21.7250764,-8.4400177e-05 28.0000985,6.27493767 28.0000985,13.9999648 C28.0000985,21.724992 21.7250764,28.0000141 14.0000492,28.0000141 C6.27502207,28.0000141 0,21.724992 0,13.9999648 C0,6.27493767 6.27502207,-8.4400177e-05 14.0000492,-8.4400177e-05 Z" id="circle" fill-opacity="0.6" fill="#0E141A" />
    <path transform="translate(7, 7)" d="M16.0000563,19.9999859 L16.0000563,13.9999648 C16.0000563,12.899961 15.1000531,11.9999578 14.0000492,11.9999578 C12.9000454,11.9999578 12.0000422,12.899961 12.0000422,13.9999648 L12.0000422,19.9999859 C12.0000422,21.0999898 12.9000454,21.999993 14.0000492,21.999993 C15.1000531,21.999993 16.0000563,21.0999898 16.0000563,19.9999859 Z" id="rod" fill="#FFFFFF" />
    <path transform="translate(7, 7)" d="M14.0000492,9.99995077 C15.1000531,9.99995077 16.0000563,9.0999476 16.0000563,7.99994373 C16.0000563,6.89993986 15.1000531,5.9999367 14.0000492,5.9999367 C12.9000454,5.9999367 12.0000422,6.89993986 12.0000422,7.99994373 C12.0000422,9.0999476 12.9000454,9.99995077 14.0000492,9.99995077 Z" id="dot" fill="#FFFFFF" />
  </symbol>

  <symbol id="short-arrow-right" fill="white">
    <path d="M10.7125236,12.712499 C10.5125229,12.8999996 10.250022,13 10.0000211,13 C9.75002022,13 9.4875193,12.8999996 9.28751859,12.712499 C8.90001723,12.3124976 8.90001723,11.6874954 9.28751859,11.287494 L10.5875232,9.99998945 L5.00000352,9.99998945 C4.45000158,9.99998945 4,9.54998787 4,8.99998593 C4,8.449984 4.45000158,7.99998242 5.00000352,7.99998242 L10.5875232,7.99998242 L9.28751859,6.71247789 C8.90001723,6.31247648 8.90001723,5.68747428 9.28751859,5.28747288 C9.68752,4.89997151 10.3125222,4.89997151 10.7125236,5.28747288 L13.7125342,8.28748343 C14.1000355,8.68748483 14.1000355,9.31248703 13.7125342,9.71248844 L10.7125236,12.712499 Z" fill="#00AE55" />
  </symbol>
</svg>